<svg width="96" height="96" viewBox="0 0 96 96" fill="none" xmlns="http://www.w3.org/2000/svg">
<path fill-rule="evenodd" clip-rule="evenodd" d="M48 96C74.5097 96 96 74.5097 96 48C96 21.4903 74.5097 0 48 0C21.4903 0 0 21.4903 0 48C0 74.5097 21.4903 96 48 96Z" fill="url(#paint0_linear)"/>
<path fill-rule="evenodd" clip-rule="evenodd" d="M15 6.02629C23.2843 6.02629 30 6.39652 30 3.63626C30 0.875988 23.2843 0 15 0C6.71573 0 0 0.889774 0 3.63626C0 6.38274 6.71573 6.02629 15 6.02629Z" transform="translate(33 73.9572)" fill="#262C39"/>
<path fill-rule="evenodd" clip-rule="evenodd" d="M5 10C7.76142 10 10 7.76142 10 5C10 2.23858 7.76142 0 5 0C2.23858 0 0 2.23858 0 5C0 7.76142 2.23858 10 5 10Z" transform="translate(22 56)" fill="#262C39"/>
<path fill-rule="evenodd" clip-rule="evenodd" d="M5 10C7.76142 10 10 7.76142 10 5C10 2.23858 7.76142 0 5 0C2.23858 0 0 2.23858 0 5C0 7.76142 2.23858 10 5 10Z" transform="translate(74 56) scale(-1 1)" fill="#262C39"/>
<path d="M1.52068 4.34041C2.26766 4.97853 3.58561 5.87298 5.41544 6.75304C7.634 7.82006 10.0856 8.58276 12.7395 8.90922C14.2447 9.09439 15.997 9.27112 17.9489 9.4393C20.2779 9.63997 22.7695 9.81851 25.2606 9.97291C26.1321 10.0269 26.9414 10.0741 27.6681 10.1141C28.105 10.1382 28.418 10.1545 28.5864 10.1629C29.6896 10.218 30.6285 9.36829 30.6836 8.26509C30.7386 7.16189 29.8889 6.22295 28.7857 6.16791C28.624 6.15984 28.3179 6.14383 27.8881 6.12016C27.1702 6.08062 26.37 6.034 25.5081 5.98058C23.0466 5.82801 20.5856 5.65167 18.2923 5.45406C16.3852 5.28974 14.6792 5.11768 13.2279 4.93915C11.03 4.66878 8.99288 4.03503 7.14916 3.14829C6.27238 2.7266 5.50039 2.27666 4.84338 1.83077C4.46523 1.57413 4.22041 1.38587 4.11879 1.29906C3.27894 0.581607 2.0165 0.68083 1.29906 1.52068C0.581607 2.36052 0.68083 3.62296 1.52068 4.34041Z" transform="translate(11.3689 49.2968)" fill="#262C39"/>
<path d="M1.52068 4.34041C2.26766 4.97853 3.58561 5.87298 5.41544 6.75304C7.634 7.82006 10.0856 8.58276 12.7395 8.90922C14.2447 9.09439 15.997 9.27112 17.9489 9.4393C20.2779 9.63997 22.7695 9.81851 25.2606 9.97291C26.1321 10.0269 26.9414 10.0741 27.6681 10.1141C28.105 10.1382 28.418 10.1545 28.5864 10.1629C29.6896 10.218 30.6285 9.36829 30.6836 8.26509C30.7386 7.16189 29.8889 6.22295 28.7857 6.16791C28.624 6.15984 28.3179 6.14383 27.8881 6.12016C27.1702 6.08062 26.37 6.034 25.5081 5.98058C23.0466 5.82801 20.5856 5.65167 18.2923 5.45406C16.3852 5.28974 14.6792 5.11768 13.2279 4.93915C11.03 4.66878 8.99288 4.03503 7.14916 3.14829C6.27238 2.7266 5.50039 2.27666 4.84338 1.83077C4.46523 1.57413 4.22041 1.38587 4.11879 1.29906C3.27894 0.581607 2.0165 0.68083 1.29906 1.52068C0.581607 2.36052 0.68083 3.62296 1.52068 4.34041Z" transform="translate(84.6311 49.2968) scale(-1 1)" fill="#262C39"/>
<defs>
<linearGradient id="paint0_linear" x2="1" gradientUnits="userSpaceOnUse" gradientTransform="translate(48) scale(96) rotate(90)">
<stop stop-color="#F25469"/>
<stop offset="1" stop-color="#FFD972"/>
</linearGradient>
</defs>
</svg>
