<svg width="96" height="96" viewBox="0 0 96 96" fill="none" xmlns="http://www.w3.org/2000/svg">
<path fill-rule="evenodd" clip-rule="evenodd" d="M48 96C74.5097 96 96 74.5097 96 48C96 21.4903 74.5097 0 48 0C21.4903 0 0 21.4903 0 48C0 74.5097 21.4903 96 48 96Z" fill="#FFD972"/>
<path fill-rule="evenodd" clip-rule="evenodd" d="M0 0C0 17.1208 13.8792 31 31 31C48.1208 31 62 17.1208 62 0H0Z" transform="translate(17 48)" fill="#262C39"/>
<mask id="mask0" mask-type="alpha" maskUnits="userSpaceOnUse" x="17" y="48" width="62" height="31">
<path fill-rule="evenodd" clip-rule="evenodd" d="M0 0C0 17.1208 13.8792 31 31 31C48.1208 31 62 17.1208 62 0H0Z" transform="translate(17 48)" fill="white"/>
</mask>
<g mask="url(#mask0)">
<path fill-rule="evenodd" clip-rule="evenodd" d="M55.5 62C86.1518 62 111 48.1208 111 31C111 13.8792 86.1518 0 55.5 0C24.8482 0 0 13.8792 0 31C0 48.1208 24.8482 62 55.5 62Z" transform="translate(-7 58)" fill="#F25267"/>
</g>
<path fill-rule="evenodd" clip-rule="evenodd" d="M2.87912 0.204193C1.88635 -0.280014 0.689026 0.132263 0.204803 1.12504C-0.279419 2.11782 0.132874 3.31516 1.12564 3.79937L10.1316 8.19184L1.12564 12.5843C0.132874 13.0685 -0.279419 14.2659 0.204803 15.2586C0.689026 16.2514 1.88635 16.6637 2.87912 16.1795L15.4622 10.0423C16.1892 9.68774 16.6049 8.95084 16.5853 8.19186C16.6049 7.43287 16.1892 6.69595 15.4622 6.34139L2.87912 0.204193Z" transform="translate(18.7061 24.9296)" fill="#262C39"/>
<path fill-rule="evenodd" clip-rule="evenodd" d="M2.87912 0.204193C1.88635 -0.280014 0.689026 0.132263 0.204803 1.12504C-0.279419 2.11782 0.132874 3.31516 1.12564 3.79937L10.1316 8.19184L1.12564 12.5843C0.132874 13.0685 -0.279419 14.2659 0.204803 15.2586C0.689026 16.2514 1.88635 16.6637 2.87912 16.1795L15.4622 10.0423C16.1892 9.68774 16.6049 8.95084 16.5853 8.19186C16.6049 7.43287 16.1892 6.69595 15.4622 6.34139L2.87912 0.204193Z" transform="translate(78.2939 24.9296) scale(-1 1)" fill="#262C39"/>
</svg>
