<svg width="19" height="18" viewBox="0 0 19 18" fill="none" xmlns="http://www.w3.org/2000/svg">
<path fill-rule="evenodd" clip-rule="evenodd" d="M16.3603 8.86273C16.3603 8.32619 16.0595 7.85749 15.6124 7.60373C15.6031 7.59842 15.5993 7.58575 15.6081 7.57921C15.9628 7.31197 16.192 6.8968 16.192 6.42892C16.192 5.62228 15.5148 4.96806 14.6789 4.96806H10.0546C10.9044 0.673742 8.76236 -0.180299 7.90885 0.0289204C7.39901 0.153553 7.34475 0.0158442 7.43729 0.99084L7.48104 2.60412C7.48525 2.76553 7.46505 2.93021 7.41668 3.09366C7.3683 3.25711 7.29511 3.40708 7.20298 3.54193L5 6.74887V14.7045L13.0817 14.7037C13.878 14.6608 14.5107 14.0229 14.5107 13.2441C14.5107 13.0095 14.4522 12.7885 14.3504 12.5923C14.3462 12.5837 14.3479 12.5723 14.3575 12.5707C15.0655 12.4485 15.6035 11.8531 15.6035 11.1347C15.6035 10.8099 15.4925 10.5111 15.307 10.2684C15.3023 10.2631 15.3053 10.2549 15.3124 10.2529C15.9203 10.0633 16.3603 9.51245 16.3603 8.86273ZM0 15.2016H5V5.20159H0V15.2016Z" transform="translate(1 1.29438)" stroke="#616770" stroke-width="1.3"/>
</svg>
