<svg width="96" height="96" viewBox="0 0 96 96" fill="none" xmlns="http://www.w3.org/2000/svg">
<path fill-rule="evenodd" clip-rule="evenodd" d="M48 96C74.5097 96 96 74.5097 96 48C96 21.4903 74.5097 0 48 0C21.4903 0 0 21.4903 0 48C0 74.5097 21.4903 96 48 96Z" fill="#5890FF"/>
<path fill-rule="evenodd" clip-rule="evenodd" d="M14.5455 45.4714C13.9946 45.0637 13.6066 44.453 13.6066 43.7675V27.6387C13.6066 27.0137 13.7622 26.3986 14.0594 25.8487L15.0792 23.9618L22.3318 11.2394C22.6429 10.7253 22.8718 10.1698 23.0118 9.59009C23.1553 8.99969 23.2048 8.38829 23.1579 7.77267L22.7035 1.79117C22.6417 0.977013 23.1029 0.162277 23.9083 0.0281525C24.0144 0.0104828 24.1146 0 24.2032 0C27.2524 0 29.865 4.87308 29.865 8.86267C29.865 9.41629 29.8225 9.97316 29.7397 10.5164L28.5128 18.47H43.8217C44.7993 18.47 45.7652 18.8781 46.4717 19.5899C47.1298 20.2529 47.4893 21.1006 47.483 21.9771C47.4757 23.0622 46.9713 24.0638 46.0995 24.7252L44.6752 25.8049L46.2298 26.6865C47.3216 27.3052 48 28.4666 48 29.7169C48 31.2503 47.0183 32.5865 45.5586 33.0422L43.9636 33.539L44.9687 34.8733C45.4292 35.484 45.6723 36.2071 45.6723 36.9643C45.6723 38.6702 44.4507 40.1127 42.7678 40.3942L41.1724 40.6611L41.9185 42.0971C42.1775 42.5963 42.3089 43.1337 42.3089 43.6938C42.3089 45.5273 40.8812 47.0452 39.0537 47.1622L18.9855 47.1698C18.9258 47.169 16.499 47.1225 14.7197 45.6087C14.6671 45.5639 14.6081 45.5177 14.5455 45.4714ZM1.88235 21.6981C0.842758 21.6981 0 22.5409 0 23.5805V48.1177C0 49.1573 0.842758 50 1.88235 50H8.47059C9.51019 50 10.3529 49.1572 10.3529 48.1177V23.5805C10.3529 22.5409 9.51019 21.6981 8.47059 21.6981H1.88235Z" transform="translate(24 19)" fill="white"/>
</svg>