<svg width="96" height="96" viewBox="0 0 96 96" fill="none" xmlns="http://www.w3.org/2000/svg">
<path fill-rule="evenodd" clip-rule="evenodd" d="M48 96C74.5097 96 96 74.5097 96 48C96 21.4903 74.5097 0 48 0C21.4903 0 0 21.4903 0 48C0 74.5097 21.4903 96 48 96Z" fill="#F25267"/>
<path fill-rule="evenodd" clip-rule="evenodd" d="M26.4 8.22029C23.9152 3.90837 19.744 0 14.4199 0C6.45575 0 0 6.44406 0 14.3937C0 22.3568 3.13007 27.6222 7.61499 33.1406C12.0999 38.6589 18.1878 43.3828 26.3734 47.7357C26.3823 47.7307 26.3911 47.7258 26.4 47.7208V8.22029Z" transform="translate(22 24)" fill="white"/>
<path fill-rule="evenodd" clip-rule="evenodd" d="M26.4 47.5398V8.22029C23.9152 3.90837 19.744 0 14.4199 0C6.45575 0 0 6.44406 0 14.3937C0 22.3568 3.13007 27.6222 7.61499 33.1406C12.0999 38.6589 17.8255 43.4048 26.0112 47.7576C26.1418 47.6845 26.2714 47.6119 26.4 47.5398Z" transform="translate(74.4 24) scale(-1 1)" fill="white"/>
</svg>
