<svg width="96" height="98" viewBox="0 0 96 98" fill="none" xmlns="http://www.w3.org/2000/svg">
<path fill-rule="evenodd" clip-rule="evenodd" d="M48 96C74.5097 96 96 74.5097 96 48C96 21.4903 74.5097 0 48 0C21.4903 0 0 21.4903 0 48C0 74.5097 21.4903 96 48 96Z" fill="#FFD972"/>
<path d="M3.77435 8.4178C3.88903 8.30237 4.13918 8.07067 4.5084 7.76152C5.13878 7.23371 5.8571 6.70355 6.64576 6.20936C8.85863 4.82271 11.1626 4 13.4127 4C15.6628 4 17.9667 4.82271 20.1796 6.20936C20.9682 6.70355 21.6866 7.23371 22.3169 7.76152C22.6862 8.07067 22.9363 8.30237 23.051 8.4178C23.7673 9.13878 24.9496 9.08372 25.5958 8.29928L25.7282 8.13861C26.351 7.38256 26.2995 6.27756 25.6091 5.58267L25.4875 5.46022C24.7818 4.75002 23.5722 3.73716 21.9643 2.72965C19.251 1.02942 16.3682 0 13.4127 0C10.4571 0 7.57432 1.02942 4.86102 2.72965C3.25318 3.73716 2.04351 4.75002 1.33788 5.46022L1.21621 5.58267C0.525806 6.27756 0.474344 7.38256 1.09718 8.13861L1.22954 8.29928C1.87578 9.08372 3.05801 9.13878 3.77435 8.4178Z" transform="translate(34.5873 68.061)" fill="#262C39"/>
<path fill-rule="evenodd" clip-rule="evenodd" d="M6.5 13C10.0899 13 13 10.0899 13 6.5C13 2.91015 10.0899 0 6.5 0C2.91015 0 0 2.91015 0 6.5C0 10.0899 2.91015 13 6.5 13Z" transform="translate(21 45)" fill="#262C39"/>
<path fill-rule="evenodd" clip-rule="evenodd" d="M6.5 13C10.0899 13 13 10.0899 13 6.5C13 2.91015 10.0899 0 6.5 0C2.91015 0 0 2.91015 0 6.5C0 10.0899 2.91015 13 6.5 13Z" transform="translate(63 45)" fill="#262C39"/>
<path fill-rule="evenodd" clip-rule="evenodd" d="M15.1053 3.02973C15.2427 4.38199 13.877 5.35195 12.5534 5.04284C11.0004 4.68014 9.07832 4.35955 7.6923 4.5585C6.29761 4.75868 4.61234 5.66516 3.30023 6.50174C2.18052 7.21565 0.625419 6.81486 0.107905 5.59191L-0.0181393 5.29405C-0.363191 4.47865 -0.129243 3.53575 0.60656 3.04328C2.0928 2.04853 4.78086 0.511674 7.6923 0.112594C12.0936 -0.49071 14.4685 1.50582 14.854 1.95366C14.9738 2.0927 15.053 2.51435 15.1053 3.02973Z" transform="translate(15 35.9258) rotate(-15)" fill="#262C39"/>
<path fill-rule="evenodd" clip-rule="evenodd" d="M15.1053 3.02973C15.2427 4.38199 13.877 5.35195 12.5534 5.04284C11.0004 4.68014 9.07832 4.35955 7.6923 4.5585C6.29761 4.75868 4.61234 5.66516 3.30023 6.50174C2.18052 7.21565 0.625419 6.81486 0.107905 5.59191L-0.0181393 5.29405C-0.363191 4.47865 -0.129243 3.53575 0.60656 3.04328C2.0928 2.04853 4.78086 0.511674 7.6923 0.112594C12.0936 -0.49071 14.4685 1.50582 14.854 1.95366C14.9738 2.0927 15.053 2.51435 15.1053 3.02973Z" transform="translate(81.5143 35.9258) scale(-1 1) rotate(-15)" fill="#262C39"/>
<path fill-rule="evenodd" clip-rule="evenodd" d="M8.5 28.5302C13.1944 28.5302 17 24.7246 17 20.0302C17 15.3358 8.5 0 8.5 0C8.5 0 0 15.3358 0 20.0302C0 24.7246 3.80558 28.5302 8.5 28.5302Z" transform="translate(67 69.4698)" fill="#5890FF"/>
</svg>
