<svg width="96" height="96" viewBox="0 0 96 96" fill="none" xmlns="http://www.w3.org/2000/svg">
<path fill-rule="evenodd" clip-rule="evenodd" d="M48 96C74.5097 96 96 74.5097 96 48C96 21.4903 74.5097 0 48 0C21.4903 0 0 21.4903 0 48C0 74.5097 21.4903 96 48 96Z" fill="#FFD972"/>
<path fill-rule="evenodd" clip-rule="evenodd" d="M14.5 39C22.5081 39 29 30.2696 29 19.5C29 8.73045 22.5081 0 14.5 0C6.49187 0 0 8.73045 0 19.5C0 30.2696 6.49187 39 14.5 39Z" transform="translate(34 47)" fill="#262C39"/>
<path fill-rule="evenodd" clip-rule="evenodd" d="M5.38225 19C8.9721 19 12.4353 14.7467 13.1175 9.5C13.7998 4.25329 11.4427 0 7.85285 0C4.263 0 0.799785 4.25329 0.117547 9.5C-0.56469 14.7467 1.7924 19 5.38225 19Z" transform="translate(19.6472 27)" fill="#262C39"/>
<path fill-rule="evenodd" clip-rule="evenodd" d="M5.38225 19C8.9721 19 12.4353 14.7467 13.1175 9.5C13.7998 4.25329 11.4427 0 7.85285 0C4.263 0 0.799785 4.25329 0.117547 9.5C-0.56469 14.7467 1.7924 19 5.38225 19Z" transform="translate(76.8823 27) scale(-1 1)" fill="#262C39"/>
<path fill-rule="evenodd" clip-rule="evenodd" d="M15.1053 3.02973C15.2427 4.38199 13.877 5.35195 12.5534 5.04284C11.0004 4.68014 9.07832 4.35955 7.6923 4.5585C6.29761 4.75868 4.61234 5.66516 3.30023 6.50174C2.18052 7.21565 0.625419 6.81486 0.107905 5.59191L-0.0181393 5.29405C-0.363191 4.47865 -0.129243 3.53575 0.60656 3.04328C2.0928 2.04853 4.78086 0.511674 7.6923 0.112594C12.0936 -0.49071 14.4685 1.50582 14.854 1.95366C14.9738 2.0927 15.053 2.51435 15.1053 3.02973Z" transform="translate(19.5037 9.71949)" fill="#262C39"/>
<path fill-rule="evenodd" clip-rule="evenodd" d="M15.1053 3.02973C15.2427 4.38199 13.877 5.35195 12.5534 5.04284C11.0004 4.68014 9.07832 4.35955 7.6923 4.5585C6.29761 4.75868 4.61234 5.66516 3.30023 6.50174C2.18052 7.21565 0.625419 6.81486 0.107905 5.59191L-0.0181393 5.29405C-0.363191 4.47865 -0.129243 3.53575 0.60656 3.04328C2.0928 2.04853 4.78086 0.511674 7.6923 0.112594C12.0936 -0.49071 14.4685 1.50582 14.854 1.95366C14.9738 2.0927 15.053 2.51435 15.1053 3.02973Z" transform="translate(77.4963 9.71949) scale(-1 1)" fill="#262C39"/>
</svg>
